<svg width="500" height="500" viewBox="0 0 500 500" fill="none" xmlns="http://www.w3.org/2000/svg">
<path d="M250 492.5C383.929 492.5 492.5 383.929 492.5 250C492.5 116.071 383.929 7.5 250 7.5C116.071 7.5 7.5 116.071 7.5 250C7.5 383.929 116.071 492.5 250 492.5Z" fill="#6E30D5" stroke="#75FF44" stroke-width="15"/>
<rect x="75" y="101" width="356" height="298" rx="119" fill="white"/>
<path d="M123.742 154.717C123.131 137.176 136.808 121 155.295 121H344.729C363.216 121 376.893 137.176 376.282 154.717C375.694 171.567 376.457 193.395 381.954 211.193C387.469 229.045 396.769 240.329 412 241.779V258.221C396.769 259.671 387.469 270.955 381.954 288.807C376.457 306.605 375.694 328.433 376.282 345.284C376.893 362.824 363.216 379 344.729 379H155.295C136.808 379 123.131 362.824 123.743 345.284C124.329 328.433 123.567 306.605 118.069 288.807C112.554 270.955 103.232 259.671 88 258.221V241.779C103.231 240.329 112.554 229.045 118.069 211.193C123.567 193.395 124.329 171.567 123.742 154.717V154.717Z" fill="url(#paint0_linear_82_4)"/>
<g filter="url(#filter0_d_82_4)">
<path d="M257.026 318.583C286.956 318.583 304.992 303.939 304.992 279.785C304.992 261.527 292.123 248.309 273.015 246.217V245.456C287.054 243.174 298.07 230.146 298.07 215.597C298.07 194.866 281.692 181.363 256.734 181.363H200.578V318.583H257.026ZM222.416 198.765H251.469C267.263 198.765 276.232 205.802 276.232 218.544C276.232 232.143 265.801 239.75 246.887 239.75H222.416V198.765V198.765ZM222.416 301.181V256.012H251.274C271.942 256.012 282.666 263.619 282.666 278.454C282.666 293.288 272.235 301.181 252.541 301.181H222.416V301.181Z" fill="url(#paint1_linear_82_4)"/>
<path d="M257.026 318.583C286.956 318.583 304.992 303.939 304.992 279.785C304.992 261.527 292.123 248.309 273.015 246.217V245.456C287.054 243.174 298.07 230.146 298.07 215.597C298.07 194.866 281.692 181.363 256.734 181.363H200.578V318.583H257.026ZM222.416 198.765H251.469C267.263 198.765 276.232 205.802 276.232 218.544C276.232 232.143 265.801 239.75 246.887 239.75H222.416V198.765V198.765ZM222.416 301.181V256.012H251.274C271.942 256.012 282.666 263.619 282.666 278.454C282.666 293.288 272.235 301.181 252.541 301.181H222.416V301.181Z" stroke="white"/>
</g>
<defs>
<filter id="filter0_d_82_4" x="184.078" y="168.863" width="137.414" height="170.22" filterUnits="userSpaceOnUse" color-interpolation-filters="sRGB">
<feFlood flood-opacity="0" result="BackgroundImageFix"/>
<feColorMatrix in="SourceAlpha" type="matrix" values="0 0 0 0 0 0 0 0 0 0 0 0 0 0 0 0 0 0 127 0" result="hardAlpha"/>
<feOffset dy="4"/>
<feGaussianBlur stdDeviation="8"/>
<feColorMatrix type="matrix" values="0 0 0 0 0 0 0 0 0 0 0 0 0 0 0 0 0 0 0.15 0"/>
<feBlend mode="normal" in2="BackgroundImageFix" result="effect1_dropShadow_82_4"/>
<feBlend mode="normal" in="SourceGraphic" in2="effect1_dropShadow_82_4" result="shape"/>
</filter>
<linearGradient id="paint0_linear_82_4" x1="136.144" y1="127.828" x2="419.106" y2="352.607" gradientUnits="userSpaceOnUse">
<stop stop-color="#9013FE"/>
<stop offset="1" stop-color="#6610F2"/>
</linearGradient>
<linearGradient id="paint1_linear_82_4" x1="210.454" y1="190.394" x2="273.671" y2="297.386" gradientUnits="userSpaceOnUse">
<stop stop-color="white"/>
<stop offset="1" stop-color="#F1E5FC"/>
</linearGradient>
</defs>
</svg>
