<svg width="500" height="500" viewBox="0 0 500 500" fill="none" xmlns="http://www.w3.org/2000/svg">
<circle cx="250" cy="250" r="242.5" fill="#6E30D5" stroke="#75FF44" stroke-width="15"/>
<path d="M405.159 177.9C405.156 172.015 403.899 166.814 401.355 162.352C398.857 157.962 395.116 154.284 390.097 151.375C348.671 127.471 307.205 103.639 265.792 79.7104C254.628 73.2599 243.803 73.4963 232.721 80.0393C216.232 89.7698 133.679 137.103 109.079 151.362C98.948 157.232 94.0183 166.215 94.0158 177.889C94 225.962 94.0158 274.036 94 322.11C94 327.865 95.2066 332.966 97.6379 337.361C100.137 341.882 103.931 345.662 109.066 348.636C133.667 362.896 216.231 410.225 232.716 419.959C243.803 426.506 254.628 426.739 265.796 420.288C307.21 396.358 348.678 372.526 390.11 348.622C395.245 345.649 399.038 341.867 401.538 337.349C403.966 332.952 405.175 327.853 405.175 322.096C405.175 322.096 405.175 225.974 405.159 177.9Z" fill="#A179DC"/>
<path d="M250.063 249.531L97.6379 337.361C100.137 341.882 103.931 345.662 109.065 348.636C133.667 362.896 216.231 410.225 232.716 419.959C243.803 426.506 254.628 426.739 265.796 420.288C307.21 396.358 348.678 372.526 390.11 348.622C395.245 345.649 399.038 341.867 401.538 337.349L250.063 249.531Z" fill="#280068"/>
<path d="M405.159 177.9C405.157 172.015 403.899 166.814 401.355 162.352L250.063 249.532L401.538 337.349C403.966 332.952 405.172 327.853 405.175 322.096C405.175 322.096 405.175 225.974 405.159 177.9" fill="#390091"/>
<path d="M339.806 216.697V233.115H356.211V216.697H364.414V233.115H380.818V241.323H364.414V257.739H380.818V265.948H364.414V282.365H356.211V265.948H339.806V282.365H331.604V265.948H315.2V257.739H331.604V241.323H315.2V233.115H331.604V216.697H339.806ZM356.211 241.322H339.806V257.739H356.211V241.322Z" fill="white"/>
<path d="M250.398 134.248C293.187 134.248 330.544 157.503 350.553 192.07L350.359 191.738L300.014 220.746C290.096 203.94 271.914 192.598 251.054 192.364L250.397 192.36C218.589 192.36 192.802 218.167 192.802 249.999C192.792 260.032 195.411 269.892 200.399 278.595C210.326 295.94 228.989 307.638 250.398 307.638C271.94 307.638 290.709 295.791 300.585 278.261L300.346 278.682L350.613 307.825C330.822 342.099 293.977 365.283 251.686 365.744L250.398 365.752C207.475 365.752 170.012 342.353 150.052 307.603C140.308 290.638 134.733 270.972 134.733 249.999C134.733 186.072 186.516 134.247 250.397 134.247L250.398 134.248Z" fill="white"/>
</svg>
