<svg width="500" height="500" viewBox="0 0 500 500" fill="none" xmlns="http://www.w3.org/2000/svg">
<circle cx="250" cy="250" r="242.5" fill="#6E30D5" stroke="#75FF44" stroke-width="15"/>
<rect x="317.117" y="188.943" width="129" height="143" transform="rotate(20.4951 317.117 188.943)" fill="white"/>
<path d="M293.014 170L259.69 337.895L318.203 378.376L389.303 375.679L451.42 216.177L293.014 170ZM412.527 240.739L404.845 259.724L351.337 266.249L351.202 266.254L397.197 279.662L374.242 338.755L330.273 338.816L293.036 314.858L299.306 283.525L319.478 289.405L316.181 305.63L336.276 317.456L360.697 317.665L369.65 292.633L301.109 272.428L301.121 272.386L301.026 272.404L305.123 252.822L356.997 246.988L360.004 246.652L309.306 231.873L312.616 211.613L412.527 240.739Z" fill="#38ACFF"/>
<rect x="134" y="170" width="162" height="180" fill="white"/>
<path d="M105 135L125.722 370.006L218.703 401L312.278 370.006L333 135H105ZM287.994 210.941H178.863L181.297 240.272H285.559L277.484 328.384L219.356 344.416V344.594H218.703L160.1 328.384L156.538 283.378H184.859L186.938 306L218.703 314.609L250.587 306L254.15 269.069H155.053L147.453 182.619H290.606L287.994 210.941V210.941Z" fill="#FF5C28"/>
</svg>
