<svg width="501" height="501" viewBox="0 0 501 501" fill="none" xmlns="http://www.w3.org/2000/svg">
<path d="M250.5 493C384.429 493 493 384.429 493 250.5C493 116.571 384.429 8 250.5 8C116.571 8 8 116.571 8 250.5C8 384.429 116.571 493 250.5 493Z" fill="#6E30D5" stroke="#75FF44" stroke-width="15"/>
<path d="M111.072 202.28V209H69.6V141.8H77.664V202.28H111.072ZM152.387 200.36L158.147 205.16L155.843 207.08C154.691 208.04 153.891 208.616 153.443 208.808C153.059 208.936 152.291 209 151.139 209H125.507C123.971 209 122.435 208.36 120.899 207.08L118.595 205.16C117.059 203.88 116.291 202.28 116.291 200.36V169.64C116.291 167.72 117.059 166.12 118.595 164.84L120.899 162.92C122.435 161.64 123.971 161 125.507 161H147.875C149.155 161 150.691 161.64 152.483 162.92L154.883 164.84C156.419 165.992 157.187 167.592 157.187 169.64V189.32H124.355V198.344C124.355 199.304 124.387 199.944 124.451 200.264C124.579 200.52 124.931 200.872 125.507 201.32C126.083 201.768 126.531 202.056 126.851 202.184C127.171 202.248 127.907 202.28 129.059 202.28H147.683C148.835 202.28 149.603 202.216 149.987 202.088C150.435 201.896 151.235 201.32 152.387 200.36ZM149.123 183.08V171.656C149.123 170.696 149.059 170.088 148.931 169.832C148.867 169.512 148.547 169.128 147.971 168.68C147.395 168.232 146.947 167.976 146.627 167.912C146.307 167.784 145.571 167.72 144.419 167.72H129.059C127.907 167.72 127.171 167.784 126.851 167.912C126.531 167.976 126.083 168.232 125.507 168.68C124.931 169.128 124.579 169.512 124.451 169.832C124.387 170.088 124.355 170.696 124.355 171.656V183.08H149.123ZM202.49 205.16H202.106C202.106 205.928 201.402 206.728 199.994 207.56C198.842 208.264 198.042 208.68 197.594 208.808C197.21 208.936 196.442 209 195.29 209H178.874C177.338 209 175.802 208.36 174.266 207.08L171.962 205.16C170.426 203.88 169.658 202.28 169.658 200.36V188.84C169.658 186.92 170.426 185.32 171.962 184.04L174.266 182.12C175.802 180.84 177.338 180.2 178.874 180.2H196.058C197.274 180.2 198.042 180.264 198.362 180.392C198.682 180.456 199.098 180.712 199.61 181.16C200.378 181.8 200.762 182.44 200.762 183.08H201.146V171.656C201.146 170.696 201.082 170.088 200.954 169.832C200.89 169.512 200.57 169.128 199.994 168.68C199.418 168.232 198.97 167.976 198.65 167.912C198.33 167.784 197.594 167.72 196.442 167.72H180.89C179.738 167.72 178.938 167.816 178.49 168.008C178.106 168.136 177.338 168.68 176.186 169.64L170.426 164.84L172.73 162.92C173.882 161.96 174.65 161.416 175.034 161.288C175.482 161.096 176.282 161 177.434 161H199.994C201.53 161 203.066 161.64 204.602 162.92L206.906 164.84C208.442 166.12 209.21 167.72 209.21 169.64V198.344C209.21 199.304 209.242 199.944 209.306 200.264C209.434 200.52 209.786 200.872 210.362 201.32C210.938 201.768 211.258 202.152 211.322 202.472C211.45 202.728 211.514 203.336 211.514 204.296V209H208.154C207.002 209 206.202 208.936 205.754 208.808C205.37 208.616 204.794 208.2 204.026 207.56C203.002 206.728 202.49 205.928 202.49 205.16ZM177.722 190.856V198.344C177.722 199.304 177.754 199.944 177.818 200.264C177.946 200.52 178.298 200.872 178.874 201.32C179.45 201.768 179.898 202.056 180.218 202.184C180.538 202.248 181.274 202.28 182.426 202.28H194.138C195.29 202.28 196.058 202.216 196.442 202.088C196.89 201.96 197.69 201.544 198.842 200.84C199.994 200.136 200.666 199.624 200.858 199.304C201.05 198.984 201.146 198.344 201.146 197.384V190.856C201.146 189.896 201.082 189.288 200.954 189.032C200.89 188.712 200.57 188.328 199.994 187.88C199.418 187.432 198.97 187.176 198.65 187.112C198.33 186.984 197.594 186.92 196.442 186.92H182.426C181.274 186.92 180.538 186.984 180.218 187.112C179.898 187.176 179.45 187.432 178.874 187.88C178.298 188.328 177.946 188.712 177.818 189.032C177.754 189.288 177.722 189.896 177.722 190.856ZM223.073 161H226.433C227.585 161 228.353 161.096 228.737 161.288C229.185 161.416 229.793 161.8 230.561 162.44C231.585 163.272 232.097 164.072 232.097 164.84H232.481C232.481 164.072 233.185 163.272 234.593 162.44C235.745 161.736 236.513 161.32 236.897 161.192C237.345 161.064 238.145 161 239.297 161H248.129C249.665 161 251.201 161.64 252.737 162.92L255.041 164.84L249.281 169.64L248.129 168.68C247.553 168.232 247.105 167.976 246.785 167.912C246.465 167.784 245.729 167.72 244.577 167.72H240.449C239.297 167.72 238.497 167.784 238.049 167.912C237.665 168.04 236.897 168.456 235.745 169.16C234.593 169.864 233.921 170.376 233.729 170.696C233.537 171.016 233.441 171.656 233.441 172.616V209H225.377V171.656C225.377 170.696 225.313 170.088 225.185 169.832C225.121 169.512 224.801 169.128 224.225 168.68C223.649 168.232 223.297 167.88 223.169 167.624C223.105 167.304 223.073 166.664 223.073 165.704V161ZM263.198 161H266.558C267.71 161 268.478 161.096 268.862 161.288C269.31 161.416 269.918 161.8 270.686 162.44C271.71 163.272 272.222 164.072 272.222 164.84H272.606C272.606 164.072 273.31 163.272 274.718 162.44C275.87 161.736 276.638 161.32 277.022 161.192C277.47 161.064 278.27 161 279.422 161H296.414C297.95 161 299.486 161.64 301.022 162.92L303.326 164.84C304.862 166.12 305.63 167.72 305.63 169.64V209H297.566V171.656C297.566 170.696 297.502 170.088 297.374 169.832C297.31 169.512 296.99 169.128 296.414 168.68C295.838 168.232 295.39 167.976 295.07 167.912C294.75 167.784 294.014 167.72 292.862 167.72H280.574C279.422 167.72 278.622 167.784 278.174 167.912C277.79 168.04 277.022 168.456 275.87 169.16C274.718 169.864 274.046 170.376 273.854 170.696C273.662 171.016 273.566 171.656 273.566 172.616V209H265.502V171.656C265.502 170.696 265.438 170.088 265.31 169.832C265.246 169.512 264.926 169.128 264.35 168.68C263.774 168.232 263.422 167.88 263.294 167.624C263.23 167.304 263.198 166.664 263.198 165.704V161ZM325.552 209H317.488V161H325.552V209ZM326.416 146.024V146.792C326.416 148.008 326.352 148.776 326.224 149.096C326.16 149.416 325.872 149.8 325.36 150.248C324.848 150.76 323.664 151.016 321.808 151.016H321.328C319.92 151.016 319.056 150.984 318.736 150.92C318.416 150.856 318.032 150.632 317.584 150.248C317.136 149.8 316.848 149.416 316.72 149.096C316.656 148.776 316.624 148.008 316.624 146.792V146.024C316.624 144.808 316.656 144.04 316.72 143.72C316.848 143.4 317.168 143.016 317.68 142.568C318.064 142.184 318.416 141.96 318.736 141.896C319.056 141.832 319.92 141.8 321.328 141.8H321.712C323.632 141.8 324.88 142.056 325.456 142.568C325.904 143.016 326.16 143.4 326.224 143.72C326.352 144.04 326.416 144.808 326.416 146.024ZM337.448 161H340.808C341.96 161 342.728 161.096 343.112 161.288C343.56 161.416 344.168 161.8 344.936 162.44C345.96 163.272 346.472 164.072 346.472 164.84H346.856C346.856 164.072 347.56 163.272 348.968 162.44C350.12 161.736 350.888 161.32 351.272 161.192C351.72 161.064 352.52 161 353.672 161H370.664C372.2 161 373.736 161.64 375.272 162.92L377.576 164.84C379.112 166.12 379.88 167.72 379.88 169.64V209H371.816V171.656C371.816 170.696 371.752 170.088 371.624 169.832C371.56 169.512 371.24 169.128 370.664 168.68C370.088 168.232 369.64 167.976 369.32 167.912C369 167.784 368.264 167.72 367.112 167.72H354.824C353.672 167.72 352.872 167.784 352.424 167.912C352.04 168.04 351.272 168.456 350.12 169.16C348.968 169.864 348.296 170.376 348.104 170.696C347.912 171.016 347.816 171.656 347.816 172.616V209H339.752V171.656C339.752 170.696 339.688 170.088 339.56 169.832C339.496 169.512 339.176 169.128 338.6 168.68C338.024 168.232 337.672 167.88 337.544 167.624C337.48 167.304 337.448 166.664 337.448 165.704V161ZM404.122 202.28H417.85C419.386 202.28 420.922 201.64 422.458 200.36C423.994 199.08 424.762 197.8 424.762 196.52V172.616C424.762 171.656 424.666 171.016 424.474 170.696C424.282 170.376 423.61 169.864 422.458 169.16C421.306 168.456 420.506 168.04 420.058 167.912C419.674 167.784 418.906 167.72 417.754 167.72H404.122C402.97 167.72 402.234 167.784 401.914 167.912C401.594 167.976 401.146 168.232 400.57 168.68C399.994 169.128 399.642 169.512 399.514 169.832C399.45 170.088 399.418 170.696 399.418 171.656V198.344C399.418 199.304 399.45 199.944 399.514 200.264C399.642 200.52 399.994 200.872 400.57 201.32C401.146 201.768 401.594 202.056 401.914 202.184C402.234 202.248 402.97 202.28 404.122 202.28ZM397.306 227.24H420.058C421.21 227.24 421.946 227.176 422.266 227.048C422.586 226.984 423.034 226.728 423.61 226.28C424.186 225.832 424.506 225.448 424.57 225.128C424.698 224.872 424.762 224.264 424.762 223.304V204.392H424.378C424.25 204.968 423.482 205.864 422.074 207.08C420.538 208.36 419.002 209 417.466 209H400.57C399.034 209 397.498 208.36 395.962 207.08L393.658 205.16C392.122 203.88 391.354 202.28 391.354 200.36V169.64C391.354 167.72 392.122 166.12 393.658 164.84L395.962 162.92C397.498 161.64 399.034 161 400.57 161H418.906C420.058 161 420.826 161.064 421.21 161.192C421.658 161.32 422.458 161.736 423.61 162.44C425.018 163.272 425.722 164.072 425.722 164.84H426.106C426.106 164.072 426.618 163.272 427.642 162.44C428.41 161.8 428.986 161.416 429.37 161.288C429.818 161.096 430.618 161 431.77 161H435.13V165.704C435.13 166.664 435.066 167.304 434.938 167.624C434.874 167.88 434.554 168.232 433.978 168.68C433.402 169.128 433.05 169.512 432.922 169.832C432.858 170.088 432.826 170.696 432.826 171.656V225.32C432.826 227.24 432.058 228.84 430.522 230.12L428.218 232.04C426.682 233.32 425.146 233.96 423.61 233.96H395.578V231.464C395.578 229.992 395.642 229.064 395.77 228.68C395.962 228.36 396.474 227.88 397.306 227.24Z" fill="white"/>
<mask id="path-3-inside-1_83_2" fill="white">
<path d="M500 250C500 316.304 473.661 379.893 426.777 426.777C379.893 473.661 316.304 500 250 500C183.696 500 120.107 473.661 73.2233 426.777C26.3392 379.893 1.00116e-05 316.304 0 250L250 250H500Z"/>
</mask>
<path d="M500 250C500 316.304 473.661 379.893 426.777 426.777C379.893 473.661 316.304 500 250 500C183.696 500 120.107 473.661 73.2233 426.777C26.3392 379.893 1.00116e-05 316.304 0 250L250 250H500Z" fill="#47D530" stroke="#6E30D5" stroke-width="30" mask="url(#path-3-inside-1_83_2)"/>
<path d="M91.0312 307.188V326.734H105.234V336.156H90.9375C90.8125 339.469 90.6094 342.125 90.3281 344.125C88.4531 357.438 82.2812 367.969 71.8125 375.719L65.4844 367.75C71.7344 363.031 76.0156 357.078 78.3281 349.891C79.4844 346.297 80.1719 341.719 80.3906 336.156H63.9375V326.734H80.5312V310.234C75.9375 311.391 71.7188 312.25 67.875 312.812L65.3906 304.188C77.5781 302.781 88.1719 299.547 97.1719 294.484L102.797 302.172C99.8906 303.859 95.9688 305.531 91.0312 307.188ZM146.109 374.266H113.297V365.641H136.312V347.219H114.703V338.922H136.312V323.031H114.516V314.641H146.109V374.266ZM185.484 341.453L176.812 343.281C175.375 332.312 173.562 322.094 171.375 312.625L180.094 310.703C182.531 321.484 184.328 331.734 185.484 341.453ZM197.859 311.875C197.859 326.875 197.125 337.984 195.656 345.203C194.031 353.141 191.438 359.562 187.875 364.469C184.344 369.344 179.125 373.703 172.219 377.547L167.812 370.141C177.344 364.609 183.297 357.031 185.672 347.406C187.297 340.75 188.234 328.906 188.484 311.875H197.859ZM173.672 346.703L164.625 348.438C162.531 334.562 160.688 324.391 159.094 317.922L167.625 315.906C169.906 324.125 171.922 334.391 173.672 346.703ZM250.453 341.172L242.953 349.141C239.453 344.797 234.109 339.062 226.922 331.938V376.188H215.906V294.109H226.922V318.906C237.047 327.281 244.891 334.703 250.453 341.172ZM293.297 309.953H258.047V300.625H293.297V309.953ZM295.875 333.672H282.75C282.75 338.172 282.578 342.109 282.234 345.484C280.922 358.453 274.688 368.75 263.531 376.375L257.578 368.312C264.078 363.344 268.344 357.656 270.375 351.25C271.5 347.688 272.062 341.828 272.062 333.672H255.844V324.438H295.875V333.672ZM321.703 318.859L313.641 322.609C311.172 316.922 307.391 310.5 302.297 303.344L309.516 299.688C314.047 305.531 318.109 311.922 321.703 318.859ZM336 313.516L327.938 317.266C325.438 311.484 321.656 305.047 316.594 297.953L323.812 294.297C328.281 300.078 332.344 306.484 336 313.516ZM393.609 347.312L378.656 349.516L379.969 375.625L369.047 376.656L367.688 351.109L351.75 353.453L350.953 343.75L367.172 341.5L366.141 322.328L352.406 323.875L352.031 314.453L365.625 312.953L364.688 295.094L375.844 294.203L376.734 311.734L389.672 310.328L390.234 319.656L377.203 321.109L378.141 339.953L392.812 337.891L393.609 347.312ZM443.438 336.812C441.219 345.875 438.656 353.234 435.75 358.891C431.469 367.172 427.875 372.625 424.969 375.25L418.734 372.531V299.031H428.344V354.391C431.594 346.766 433.906 339.828 435.281 333.578L443.438 336.812ZM414.797 323.781C414.797 338.219 413.812 349.062 411.844 356.312C409.625 364.469 406.781 371.219 403.312 376.562L396.469 370.141C399.344 365.078 401.562 358.969 403.125 351.812C404.469 345.594 405.141 336.062 405.141 323.219V301.516H414.797V323.781Z" fill="white"/>
</svg>
