<svg width="500" height="500" viewBox="0 0 500 500" fill="none" xmlns="http://www.w3.org/2000/svg">
<path d="M250 492.5C383.929 492.5 492.5 383.929 492.5 250C492.5 116.071 383.929 7.5 250 7.5C116.071 7.5 7.5 116.071 7.5 250C7.5 383.929 116.071 492.5 250 492.5Z" fill="#6E30D5" stroke="#75FF44" stroke-width="15"/>
<path d="M264.357 133.766L321.043 166.842C323.081 168.003 323.155 171.225 321.043 172.386L253.686 211.717C251.648 212.916 249.24 212.841 247.351 211.717L179.994 172.386C177.919 171.262 177.882 167.965 179.994 166.842L236.643 133.766V69L92 153.432V322.295L147.464 289.931V223.779C147.427 221.419 150.169 219.733 152.206 221.007L219.563 260.338C221.601 261.537 222.75 263.673 222.75 265.883V344.508C222.787 346.868 220.045 348.554 218.007 347.28L161.321 314.204L105.857 346.568L250.5 431L395.143 346.568L339.68 314.204L282.993 347.28C280.992 348.516 278.177 346.906 278.25 344.508V265.883C278.25 263.523 279.547 261.425 281.437 260.338L348.794 221.007C350.794 219.771 353.61 221.344 353.536 223.779V289.931L409 322.295V153.432L264.357 69V133.766Z" fill="white"/>
</svg>
